<?xml version="1.0" standalone="no"?>
<!DOCTYPE svg PUBLIC "-//W3C//DTD SVG 20010904//EN"
 "http://www.w3.org/TR/2001/REC-SVG-20010904/DTD/svg10.dtd">
<svg version="1.0" xmlns="http://www.w3.org/2000/svg"
 width="866.000000pt" height="288.000000pt" viewBox="0 0 866.000000 288.000000"
 preserveAspectRatio="xMidYMid meet">

<g transform="translate(0.000000,288.000000) scale(0.100000,-0.100000)"
fill="#000000" stroke="none">
<path d="M7455 1978 c4 -11 2 -18 -4 -18 -6 0 -11 -4 -11 -10 0 -16 20 -12 27
6 3 8 0 21 -6 27 -9 9 -11 8 -6 -5z"/>
<path d="M893 1900 c0 -30 2 -43 4 -27 2 15 2 39 0 55 -2 15 -4 2 -4 -28z"/>
<path d="M3391 1934 c0 -11 3 -14 6 -6 3 7 2 16 -1 19 -3 4 -6 -2 -5 -13z"/>
<path d="M7415 1739 c4 -13 2 -25 -5 -29 -8 -5 -7 -9 4 -13 13 -5 16 1 16 28
0 19 -5 35 -11 35 -6 0 -8 -9 -4 -21z"/>
<path d="M893 1630 c0 -47 2 -66 4 -42 2 23 2 61 0 85 -2 23 -4 4 -4 -43z"/>
<path d="M2147 1570 c-3 -11 -2 -22 2 -24 4 -3 8 6 9 20 2 29 -4 31 -11 4z"/>
<path d="M7465 1560 c-3 -5 -1 -10 4 -10 6 0 11 5 11 10 0 6 -2 10 -4 10 -3 0
-8 -4 -11 -10z"/>
<path d="M4666 1201 c-14 -5 -16 -10 -8 -15 15 -9 17 -442 2 -451 -30 -18 1
-25 118 -25 113 0 131 3 167 23 46 26 100 100 116 160 33 123 -33 256 -149
301 -45 17 -209 22 -246 7z m218 -44 c62 -19 126 -121 126 -201 0 -55 -30
-132 -64 -164 -54 -50 -175 -71 -196 -33 -6 12 -10 95 -10 202 0 236 2 239
144 196z"/>
<path d="M5740 1203 c-107 -18 -152 -89 -108 -172 19 -36 37 -51 101 -85 94
-51 115 -68 123 -102 12 -46 -7 -77 -58 -98 -44 -18 -49 -18 -90 -3 -31 12
-48 27 -63 54 -25 48 -40 45 -40 -9 0 -39 3 -45 35 -60 44 -23 154 -24 204 -3
41 17 76 66 76 106 0 14 -10 41 -23 60 -21 32 -48 52 -163 124 -51 32 -71 66
-61 106 7 28 54 59 89 59 30 0 88 -36 88 -54 0 -16 26 -46 41 -46 15 0 10 68
-7 84 -31 32 -91 48 -144 39z"/>
<path d="M6225 1201 l-70 -6 0 -235 c0 -145 4 -238 10 -242 6 -4 74 -8 153 -8
l142 0 10 25 c23 61 23 75 1 75 -13 0 -26 -10 -32 -24 -14 -31 -43 -43 -118
-52 -48 -5 -66 -3 -86 10 -24 16 -25 21 -25 106 0 86 1 91 24 101 34 16 113 2
138 -23 11 -11 21 -18 22 -16 7 8 15 115 10 121 -4 3 -19 -7 -35 -24 -26 -28
-32 -30 -91 -27 l-63 3 -3 79 c-4 102 7 116 91 116 66 0 123 -22 132 -51 10
-31 25 -22 25 15 0 67 -28 74 -235 57z"/>
<path d="M2336 1183 c5 -10 10 -107 12 -216 2 -159 0 -204 -12 -228 l-14 -29
64 0 c69 0 79 5 39 20 -24 9 -25 13 -25 99 0 103 -2 101 96 101 61 0 66 2 103
39 50 50 59 95 32 155 -28 65 -57 76 -192 76 -102 0 -110 -1 -103 -17z m192
-21 c54 -29 76 -91 50 -146 -20 -46 -89 -74 -148 -61 l-30 7 0 98 c0 84 3 101
18 109 26 16 73 12 110 -7z"/>
<path d="M3023 1182 c-7 -22 -62 -160 -73 -187 -5 -11 -19 -45 -30 -75 -52
-132 -80 -190 -90 -190 -6 0 -10 -4 -10 -10 0 -5 23 -10 50 -10 47 0 63 11 40
25 -15 9 -12 46 10 93 l19 42 88 0 88 0 20 -37 c12 -22 20 -54 19 -80 l-1 -43
66 0 66 0 -27 23 c-24 20 -48 66 -95 192 -17 45 -24 61 -51 125 -11 25 -27 66
-37 92 -19 50 -42 69 -52 40z m47 -172 c45 -108 44 -110 -39 -110 -39 0 -72 3
-75 8 -4 6 20 83 53 166 15 38 24 28 61 -64z"/>
<path d="M3470 1191 c0 -6 5 -13 10 -16 6 -4 10 -89 10 -222 0 -206 -1 -215
-20 -220 -40 -11 -18 -23 40 -23 53 0 79 12 49 22 -8 3 -14 42 -17 104 -4 85
-2 103 12 117 15 14 15 19 4 30 -17 18 -23 148 -8 176 9 17 21 21 60 21 87 0
151 -59 134 -124 -9 -38 -63 -76 -107 -76 -42 0 -46 -9 -18 -34 11 -10 34 -46
51 -79 77 -148 84 -157 136 -157 47 0 59 14 22 24 -19 4 -88 99 -88 120 0 4
-11 24 -25 46 -14 22 -25 41 -25 43 0 1 16 11 35 21 47 26 75 73 75 126 0 36
-6 48 -36 76 l-35 34 -130 0 c-74 0 -129 -4 -129 -9z"/>
<path d="M4212 1187 c-6 -6 -20 -37 -31 -67 -12 -30 -25 -64 -30 -75 -5 -11
-15 -38 -24 -60 -79 -209 -96 -247 -119 -253 -37 -9 -16 -22 37 -22 51 0 69
10 45 25 -12 8 -13 52 -1 59 5 3 12 18 16 33 9 39 19 43 112 43 75 0 83 -2 95
-22 23 -41 38 -102 28 -112 -6 -6 -10 -14 -10 -18 0 -12 118 -10 125 2 3 6 -1
10 -10 10 -9 0 -25 21 -39 53 -34 75 -132 325 -148 375 -13 43 -27 52 -46 29z
m15 -116 c17 -27 53 -131 53 -153 0 -16 -9 -18 -70 -18 -75 0 -80 4 -61 52 24
61 40 105 45 121 7 22 18 22 33 -2z"/>
<path d="M5280 1191 c0 -6 4 -12 9 -15 14 -9 8 -423 -7 -438 -22 -22 -12 -28
50 -28 57 0 61 1 46 16 -14 14 -15 41 -12 203 3 102 6 205 8 229 l4 42 -49 0
c-27 0 -49 -4 -49 -9z"/>
</g>
</svg>
